<?xml version="1.0"?>
<svg xmlns="http://www.w3.org/2000/svg" xmlns:xlink="http://www.w3.org/1999/xlink" xmlns:svgjs="http://svgjs.com/svgjs" version="1.1" width="512" height="512" x="0" y="0" viewBox="0 0 510 510" style="enable-background:new 0 0 512 512" xml:space="preserve"><g><g xmlns="http://www.w3.org/2000/svg"><path d="m0 0v510h510v-510c-3.961 0-447.413 0-510 0zm30 30h198.507l-27 45h-171.507zm450 450h-450v-375h188.493l45-75h216.507z" fill="#ffffff" data-original="#000000" style=""/><path d="m360 75h30v30h-30z" fill="#ffffff" data-original="#000000" style=""/><path d="m300 75h30v30h-30z" fill="#ffffff" data-original="#000000" style=""/><path d="m420 75h30v30h-30z" fill="#ffffff" data-original="#000000" style=""/><path d="m60 225h390v-90h-390zm30-60h330v30h-330z" fill="#ffffff" data-original="#000000" style=""/><path d="m60 300h240v30h-240z" fill="#ffffff" data-original="#000000" style=""/><path d="m60 360h240v30h-240z" fill="#ffffff" data-original="#000000" style=""/><path d="m60 420h390v30h-390z" fill="#ffffff" data-original="#000000" style=""/><path d="m330 390h120v-135h-120zm30-105h60v75h-60z" fill="#ffffff" data-original="#000000" style=""/></g></g></svg>
