<?xml version="1.0"?>
<svg xmlns="http://www.w3.org/2000/svg" xmlns:xlink="http://www.w3.org/1999/xlink" xmlns:svgjs="http://svgjs.com/svgjs" version="1.1" width="512" height="512" x="0" y="0" viewBox="0 0 24 24" style="enable-background:new 0 0 512 512" xml:space="preserve" class=""><g><path xmlns="http://www.w3.org/2000/svg" d="m9.5 14.5c-.013 0-.025 0-.037-.001-.33-.016-.611-.247-.691-.567l-1.416-5.663-.654 1.745c-.11.292-.389.486-.702.486h-5c-.414 0-.75-.336-.75-.75s.336-.75.75-.75h4.48l1.317-3.513c.115-.308.428-.5.745-.486.329.019.606.249.686.567l1.399 5.597 1.667-4.667c.107-.301.375-.521.714-.498.32.003.603.209.704.513l.829 2.487h4.459c.414 0 .75.336.75.75s-.336.75-.75.75h-5c-.323 0-.609-.207-.711-.513l-.313-.939-1.769 4.954c-.108.3-.391.498-.707.498z" fill="#ffffff" data-original="#000000" style="" class=""/><path xmlns="http://www.w3.org/2000/svg" d="m9.5 19c-5.238 0-9.5-4.262-9.5-9.5s4.262-9.5 9.5-9.5 9.5 4.262 9.5 9.5-4.262 9.5-9.5 9.5zm0-17.5c-4.411 0-8 3.589-8 8s3.589 8 8 8 8-3.589 8-8-3.589-8-8-8z" fill="#ffffff" data-original="#000000" style="" class=""/><path xmlns="http://www.w3.org/2000/svg" d="m23.25 24c-.192 0-.384-.073-.53-.22l-7.31-7.31c-.293-.293-.293-.768 0-1.061s.768-.293 1.061 0l7.31 7.31c.293.293.293.768 0 1.061-.147.147-.339.22-.531.22z" fill="#ffffff" data-original="#000000" style="" class=""/></g></svg>
